#N canvas 0 58 462 167 10;
#X msg 112 31 -1 0 1 -1 0 1 -1;
#N canvas 0 58 1051 646 format-harp-pedal 0;
#X msg 810 306 set \$1;
#X obj 810 332 makefilename not-set-yet;
#X obj 752 128 sel -1 0 1;
#X floatatom 752 107 5 0 0 0 - - -, f 5;
#X msg 752 150 v;
#X msg 771 172 -;
#X msg 790 150 ^;
#X obj 771 194 symbol;
#X obj 632 129 sel -1 0 1;
#X floatatom 632 108 5 0 0 0 - - -, f 5;
#X msg 632 151 v;
#X msg 651 173 -;
#X msg 670 151 ^;
#X obj 651 195 symbol;
#X msg 810 355 set \$1;
#X obj 810 382 makefilename not-set-yet;
#X obj 771 217 makefilename %%s%s";
#X obj 651 218 makefilename %%s%s;
#X obj 510 129 sel -1 0 1;
#X floatatom 510 108 5 0 0 0 - - -, f 5;
#X msg 510 151 v;
#X msg 529 173 -;
#X msg 548 151 ^;
#X obj 529 195 symbol;
#X obj 529 218 makefilename %%s%s;
#X obj 810 434 makefilename not-set-yet;
#X obj 379 130 sel -1 0 1;
#X floatatom 379 109 5 0 0 0 - - -, f 5;
#X msg 379 152 v;
#X msg 398 174 -;
#X msg 417 152 ^;
#X obj 398 196 symbol;
#X msg 810 408 set \$1;
#X obj 24 36 unpack f f f f f f f, f 117;
#X obj 398 219 makefilename %%s|%s;
#X obj 527 492 makefilename not-set-yet;
#X obj 261 310 sel -1 0 1;
#X floatatom 261 289 5 0 0 0 - - -, f 5;
#X msg 261 332 v;
#X msg 280 354 -;
#X msg 299 332 ^;
#X obj 280 376 symbol;
#X msg 527 515 set \$1;
#X obj 527 542 makefilename not-set-yet;
#X obj 280 399 makefilename %%s%s;
#X obj 140 310 sel -1 0 1;
#X floatatom 140 289 5 0 0 0 - - -, f 5;
#X msg 140 332 v;
#X msg 159 354 -;
#X msg 178 332 ^;
#X obj 159 376 symbol;
#X obj 159 399 makefilename %%s%s;
#X obj 527 594 makefilename not-set-yet;
#X obj 24 310 sel -1 0 1;
#X floatatom 24 289 5 0 0 0 - - -, f 5;
#X msg 24 332 v;
#X msg 43 354 -;
#X msg 62 332 ^;
#X obj 43 376 symbol;
#X msg 527 568 set \$1;
#X msg 810 459 set \$1;
#X obj 43 399 makefilename #"%s;
#X obj 527 616 outlet;
#X obj 24 10 inlet;
#X connect 0 0 1 0;
#X connect 1 0 14 0;
#X connect 2 0 4 0;
#X connect 2 1 5 0;
#X connect 2 2 6 0;
#X connect 3 0 2 0;
#X connect 4 0 7 0;
#X connect 5 0 7 0;
#X connect 6 0 7 0;
#X connect 7 0 16 0;
#X connect 8 0 10 0;
#X connect 8 1 11 0;
#X connect 8 2 12 0;
#X connect 9 0 8 0;
#X connect 10 0 13 0;
#X connect 11 0 13 0;
#X connect 12 0 13 0;
#X connect 13 0 17 0;
#X connect 14 0 15 0;
#X connect 15 0 32 0;
#X connect 16 0 0 0;
#X connect 17 0 1 0;
#X connect 18 0 20 0;
#X connect 18 1 21 0;
#X connect 18 2 22 0;
#X connect 19 0 18 0;
#X connect 20 0 23 0;
#X connect 21 0 23 0;
#X connect 22 0 23 0;
#X connect 23 0 24 0;
#X connect 24 0 15 0;
#X connect 25 0 60 0;
#X connect 26 0 28 0;
#X connect 26 1 29 0;
#X connect 26 2 30 0;
#X connect 27 0 26 0;
#X connect 28 0 31 0;
#X connect 29 0 31 0;
#X connect 30 0 31 0;
#X connect 31 0 34 0;
#X connect 32 0 25 0;
#X connect 33 0 54 0;
#X connect 33 1 46 0;
#X connect 33 2 37 0;
#X connect 33 3 27 0;
#X connect 33 4 19 0;
#X connect 33 5 9 0;
#X connect 33 6 3 0;
#X connect 34 0 25 0;
#X connect 35 0 42 0;
#X connect 36 0 38 0;
#X connect 36 1 39 0;
#X connect 36 2 40 0;
#X connect 37 0 36 0;
#X connect 38 0 41 0;
#X connect 39 0 41 0;
#X connect 40 0 41 0;
#X connect 41 0 44 0;
#X connect 42 0 43 0;
#X connect 43 0 59 0;
#X connect 44 0 35 0;
#X connect 45 0 47 0;
#X connect 45 1 48 0;
#X connect 45 2 49 0;
#X connect 46 0 45 0;
#X connect 47 0 50 0;
#X connect 48 0 50 0;
#X connect 49 0 50 0;
#X connect 50 0 51 0;
#X connect 51 0 43 0;
#X connect 52 0 62 0;
#X connect 53 0 55 0;
#X connect 53 1 56 0;
#X connect 53 2 57 0;
#X connect 54 0 53 0;
#X connect 55 0 58 0;
#X connect 56 0 58 0;
#X connect 57 0 58 0;
#X connect 58 0 61 0;
#X connect 59 0 52 0;
#X connect 60 0 35 0;
#X connect 61 0 52 0;
#X connect 63 0 33 0;
#X restore 112 54 pd format-harp-pedal;
#X obj 112 76 print;
#X connect 0 0 1 0;
#X connect 1 0 2 0;
