#N canvas 0 58 459 444 10;
#X obj 71 45 inlet;
#X obj 146 111 sel -1 0 1;
#X floatatom 146 90 5 0 0 0 - - -, f 5;
#X msg 146 133 v;
#X msg 165 155 -;
#X msg 184 133 ^;
#X obj 165 177 symbol;
#X obj 284 334 outlet;
#X obj 71 67 t f f, f 13;
#X obj 71 89 change;
#X obj 71 179 sel -1 0 1;
#X floatatom 71 158 5 0 0 0 - - -, f 5;
#X obj 90 245 symbol;
#X msg 71 201 ov;
#X msg 90 223 o-;
#X msg 109 201 o^;
#X obj 71 111 spigot;
#X obj 223 42 inlet;
#X obj 165 200 makefilename %%s%s;
#X obj 90 268 makefilename %%s%s;
#X connect 0 0 8 0;
#X connect 1 0 3 0;
#X connect 1 1 4 0;
#X connect 1 2 5 0;
#X connect 2 0 1 0;
#X connect 3 0 6 0;
#X connect 4 0 6 0;
#X connect 5 0 6 0;
#X connect 6 0 18 0;
#X connect 8 0 9 0;
#X connect 8 1 2 0;
#X connect 9 0 16 0;
#X connect 10 0 13 0;
#X connect 10 1 14 0;
#X connect 10 2 15 0;
#X connect 11 0 10 0;
#X connect 12 0 19 0;
#X connect 13 0 12 0;
#X connect 14 0 12 0;
#X connect 15 0 12 0;
#X connect 16 0 11 0;
#X connect 17 0 16 1;
#X connect 18 0 7 0;
#X connect 19 0 7 0;
